<?xml version="1.0" standalone="no"?>
<!DOCTYPE svg PUBLIC "-//W3C//DTD SVG 20010904//EN"
 "http://www.w3.org/TR/2001/REC-SVG-20010904/DTD/svg10.dtd">
<svg version="1.0" xmlns="http://www.w3.org/2000/svg"
 width="250.000000pt" height="250.000000pt" viewBox="0 0 250.000000 250.000000"
 preserveAspectRatio="xMidYMid meet">
<metadata>
Created by potrace 1.14, written by Peter Selinger 2001-2017
</metadata>
<g transform="translate(0.000000,250.000000) scale(0.100000,-0.100000)"
fill="#000000" stroke="none">
<path d="M556 2392 c-3 -3 -18 -6 -33 -7 -49 -3 -53 -5 -53 -19 0 -8 -5 -16
-12 -18 -14 -5 -20 -36 -19 -105 0 -29 -4 -53 -9 -53 -14 0 -12 -39 3 -53 6
-7 21 -13 32 -15 29 -5 167 -3 190 2 11 2 27 5 36 5 20 1 32 50 17 68 -6 8
-36 10 -99 7 l-90 -6 6 54 c4 29 7 54 9 55 1 1 43 4 94 6 103 4 119 11 102 49
-10 21 -19 25 -53 26 -23 0 -44 1 -47 2 -16 5 -70 7 -74 2z"/>
<path d="M986 2301 c-51 -31 -19 -55 89 -67 33 -3 63 -8 67 -10 7 -4 38 35 38
47 0 11 -59 30 -117 38 -39 6 -58 4 -77 -8z"/>
<path d="M1566 2238 c-33 -17 -45 -42 -20 -44 5 0 16 -3 24 -7 35 -14 88 -23
130 -23 39 1 45 4 48 25 4 29 -6 40 -44 46 -16 2 -45 8 -65 13 -28 7 -44 5
-73 -10z"/>
<path d="M1006 2201 c-3 -5 -14 -7 -25 -4 -20 5 -64 -33 -58 -51 5 -16 46 -24
127 -25 81 0 115 14 104 43 -9 24 -34 34 -79 31 -22 -2 -45 1 -52 6 -7 6 -13
6 -17 0z"/>
<path d="M1240 2189 c-5 -9 -8 -61 -6 -115 4 -87 7 -100 25 -113 19 -12 20
-16 8 -30 -23 -26 -48 -111 -38 -130 25 -47 73 -63 124 -42 39 16 57 35 68 76
16 59 -24 116 -83 119 -18 1 -32 5 -30 9 1 4 2 18 2 32 0 14 5 25 12 25 22 0
128 53 128 64 -1 13 -25 47 -31 42 -2 -2 -22 -6 -44 -9 -22 -2 -46 -6 -54 -8
-9 -3 -14 8 -17 36 -3 22 -6 45 -9 52 -6 17 -45 12 -55 -8z m120 -329 c-1 -21
-26 -34 -57 -31 -19 2 -16 38 4 49 15 9 53 -4 53 -18z"/>
<path d="M1885 2180 c-12 -13 -17 -43 -20 -111 -2 -52 -9 -119 -14 -149 -6
-30 -8 -62 -6 -70 6 -17 54 -54 61 -47 5 4 13 38 18 72 2 11 4 22 5 25 0 3 26
3 56 2 45 -3 56 -1 62 13 8 22 -9 50 -30 50 -9 0 -19 4 -23 8 -4 4 -18 7 -31
7 -18 0 -23 5 -23 26 0 22 3 24 23 18 25 -8 83 -7 97 1 17 10 11 44 -9 55 -11
5 -35 10 -54 10 -33 0 -64 20 -51 33 3 3 3 19 -1 35 -8 36 -37 47 -60 22z"/>
<path d="M1555 2132 c3 -7 1 -11 -4 -8 -5 3 -16 -5 -25 -19 -17 -26 -9 -38 26
-40 30 -3 31 -12 5 -60 -24 -43 -27 -75 -6 -75 5 0 9 -7 9 -15 0 -8 4 -15 8
-15 10 0 52 56 52 70 0 23 22 8 36 -25 15 -37 45 -46 85 -25 30 17 23 34 -37
89 -56 51 -56 56 1 52 28 -2 78 25 81 43 4 25 -15 30 -129 36 -85 4 -106 2
-102 -8z"/>
<path d="M964 2089 c-28 -8 -32 -14 -37 -52 -3 -27 2 -57 13 -82 17 -40 23
-44 83 -48 33 -2 17 -67 -17 -67 -24 -1 -56 -22 -56 -38 0 -6 -6 -12 -12 -15
-10 -4 -10 -7 -1 -17 9 -10 40 -13 105 -12 128 3 162 12 166 42 5 32 -19 48
-67 44 -38 -3 -39 -2 -45 36 -6 39 0 70 14 70 17 0 48 68 42 95 -9 47 -102 69
-188 44z m116 -71 c0 -13 -60 -36 -81 -31 -15 4 -16 9 -8 24 7 14 20 18 49 17
22 -1 40 -5 40 -10z"/>
<path d="M574 2076 c-5 -12 -10 -35 -13 -56 -1 -3 -24 -5 -53 -4 -43 1 -56 -4
-75 -24 -13 -14 -23 -28 -23 -32 0 -13 51 -17 165 -15 145 3 139 2 165 23 21
17 21 19 6 34 -11 12 -31 16 -65 15 -47 -2 -50 -1 -49 24 1 14 -2 31 -6 38
-10 16 -46 14 -52 -3z"/>
<path d="M2185 2035 c-46 -21 -65 -40 -65 -63 0 -29 42 -53 56 -31 10 16 42
10 49 -10 8 -25 36 -56 59 -65 30 -11 108 4 102 20 -3 7 0 14 6 16 8 3 8 9 2
19 -5 8 -9 19 -9 24 0 6 -19 10 -43 10 -43 0 -58 13 -78 68 -3 9 -10 17 -14
17 -5 0 -14 2 -22 5 -7 2 -26 -2 -43 -10z"/>
<path d="M670 1908 c-14 -5 -52 -10 -85 -11 -67 -3 -83 -10 -108 -49 -18 -29
-23 -88 -7 -88 6 0 6 -9 0 -25 -7 -18 -5 -28 7 -41 14 -13 30 -15 92 -10 42 3
95 5 117 6 51 0 54 8 44 118 -8 91 -22 114 -60 100z m-12 -109 c1 -16 -1 -30
-5 -30 -5 -1 -18 -3 -30 -4 -12 -1 -28 -5 -36 -8 -21 -8 -36 6 -43 40 -6 31
-6 32 37 35 65 4 75 0 77 -33z"/>
<path d="M1508 1560 c-24 -30 -24 -31 -61 -15 -69 29 -230 10 -263 -31 -14
-17 28 -109 73 -162 l28 -34 -65 -68 c-36 -37 -76 -90 -89 -116 -12 -27 -27
-57 -32 -67 -5 -10 -7 -22 -4 -27 3 -5 2 -11 -3 -14 -5 -3 -7 -23 -6 -45 1
-23 -2 -39 -6 -36 -5 3 -11 1 -15 -5 -4 -6 -14 -5 -28 4 -25 16 -106 18 -124
3 -7 -5 -13 -6 -13 -1 0 5 -8 -4 -19 -19 -21 -32 -17 -70 19 -197 27 -94 40
-163 31 -170 -3 -3 -7 -18 -9 -35 -4 -36 -42 -96 -93 -148 -21 -21 -38 -42
-37 -45 1 -4 -5 -20 -12 -35 -24 -50 7 -74 155 -121 82 -25 105 -30 235 -47
82 -10 356 -3 435 11 28 5 91 12 140 15 162 9 288 49 315 101 7 12 18 22 23
21 6 -1 15 20 20 46 8 40 6 54 -9 83 -10 19 -22 34 -26 34 -23 0 -12 58 47
232 70 207 81 254 63 275 -7 9 -7 13 0 13 5 0 8 10 5 21 -5 19 -11 21 -52 16
-25 -3 -53 -8 -62 -12 -13 -5 -15 4 -14 55 1 33 -2 60 -6 60 -5 0 -9 6 -9 13
0 6 -17 38 -37 69 -35 54 -44 61 -159 119 -87 43 -121 65 -117 75 3 8 8 14 12
14 15 0 -3 87 -25 122 -28 44 -91 78 -145 78 -30 0 -42 -6 -61 -30z m132 -83
c0 -9 -2 -9 -8 -1 -4 6 -17 16 -29 22 -17 10 -22 9 -27 -5 -5 -12 -10 -13 -18
-5 -8 8 -8 15 1 26 11 13 17 12 47 -6 19 -11 34 -25 34 -31z m-330 -7 c-18
-12 -30 -13 -30 -2 0 4 10 9 22 9 18 2 20 0 8 -7z m77 4 c-3 -3 -12 -4 -19 -1
-8 3 -5 6 6 6 11 1 17 -2 13 -5z m50 -10 c-3 -3 -12 -4 -19 -1 -8 3 -5 6 6 6
11 1 17 -2 13 -5z m223 -48 c0 -14 -8 -27 -17 -31 -15 -5 -16 -4 -5 6 6 7 12
21 12 31 0 10 2 18 5 18 3 0 5 -11 5 -24z m-325 -6 c3 -5 1 -10 -4 -10 -6 0
-11 5 -11 10 0 6 2 10 4 10 3 0 8 -4 11 -10z m166 -23 c-10 -9 -11 -8 -5 6 3
10 9 15 12 12 3 -3 0 -11 -7 -18z m109 12 c12 -8 10 -9 -7 -4 -12 3 -24 1 -28
-5 -3 -5 -18 -10 -33 -10 -41 0 -5 24 43 29 6 0 17 -4 25 -10z m-216 -23 c36
9 33 -2 -4 -14 -26 -10 -31 -8 -42 11 -10 19 -9 21 4 9 10 -8 26 -10 42 -6z
m216 -71 c70 -17 152 -45 160 -55 3 -3 25 -14 50 -25 69 -29 96 -51 126 -103
22 -37 28 -61 29 -114 2 -68 -22 -148 -44 -148 -5 0 -16 -6 -23 -13 -32 -32
-130 -89 -175 -102 -44 -13 -157 -28 -208 -28 -201 2 -320 36 -329 95 -1 7 -5
19 -9 26 -15 23 -22 66 -22 133 1 90 38 171 113 245 58 57 106 84 148 84 13 0
24 4 24 9 0 10 53 20 80 15 8 -2 44 -10 80 -19z m505 -407 c-3 -13 -7 -30 -7
-38 0 -8 -4 -19 -8 -25 -3 -5 -12 -30 -19 -55 -7 -25 -19 -60 -27 -78 -8 -18
-12 -37 -9 -42 3 -4 -1 -13 -9 -19 -11 -9 -26 -55 -25 -76 0 -11 -45 -85 -53
-85 -12 0 3 -32 27 -60 33 -38 50 -87 36 -104 -13 -15 -73 -46 -100 -51 -9 -2
-16 -4 -16 -5 0 -6 -48 -11 -215 -25 -25 -2 -58 -6 -75 -9 -16 -3 -107 -8
-200 -12 -134 -4 -191 -2 -264 10 -52 9 -96 14 -98 12 -3 -2 -25 4 -50 15 -24
10 -53 19 -64 19 -10 0 -19 5 -19 10 0 6 -6 10 -12 9 -46 -6 -50 15 -10 52 44
41 58 63 82 125 12 33 28 66 36 75 19 21 13 71 -22 186 -13 45 -27 102 -30
127 l-7 45 30 -8 c78 -22 98 -39 127 -107 17 -39 39 -72 55 -82 14 -9 28 -19
31 -23 3 -3 43 -13 90 -22 173 -33 433 -14 529 40 25 14 49 30 52 35 3 5 10 9
14 7 20 -6 155 120 155 146 0 8 15 19 33 24 48 14 50 13 42 -11z"/>
<path d="M240 809 c-14 -10 -31 -19 -37 -19 -7 0 -13 -4 -13 -9 0 -5 -9 -13
-21 -16 -12 -4 -18 -12 -15 -21 3 -7 0 -17 -7 -21 -34 -22 -42 -115 -14 -172
11 -23 10 -30 -10 -60 -28 -42 -30 -94 -4 -143 17 -30 18 -41 9 -72 -9 -29 -9
-45 1 -74 19 -52 35 -68 87 -82 37 -11 50 -10 69 0 38 21 32 47 -14 60 -64 17
-78 53 -48 121 16 36 16 37 -5 51 -17 11 -22 25 -22 64 -1 46 1 49 26 52 36 4
55 53 28 70 -21 13 -51 106 -43 131 22 58 89 105 139 95 19 -3 34 -10 34 -15
0 -5 5 -9 10 -9 22 0 8 41 -21 62 -39 29 -97 32 -129 7z"/>
<path d="M592 776 c-21 -6 -31 -14 -28 -22 3 -8 -2 -17 -11 -22 -26 -15 14
-25 89 -23 99 4 122 12 125 44 1 15 -4 28 -10 28 -45 6 -138 3 -165 -5z"/>
<path d="M658 595 c-4 -4 -54 -13 -80 -14 -17 -1 -50 -55 -40 -65 9 -9 60 -7
108 5 39 10 44 15 44 39 0 24 -20 46 -32 35z"/>
<path d="M514 386 c-16 -28 -16 -30 1 -42 11 -8 25 -10 40 -4 13 5 25 7 27 4
3 -2 18 1 34 8 27 12 30 19 26 55 -1 7 -22 11 -56 10 -49 -1 -56 -4 -72 -31z"/>
</g>
</svg>
